<svg width="612" height="612" xmlns="http://www.w3.org/2000/svg">

 <g>
  <title>background</title>
  <rect fill="none" id="canvas_background" height="402" width="582" y="-1" x="-1"/>
 </g>
 <g>
  <title>Layer 1</title>
  <g id="svg_1">
   <g id="svg_2">
    <path fill="#801ab3" id="svg_3" d="m306,541.385c-86.833,0 -162.674,-47.007 -203.466,-116.963l-26.858,0c43.005,83.444 130.003,140.501 230.324,140.501c135.063,0 245.977,-103.428 257.864,-235.385l48.136,0l-58.846,-70.615l-58.847,70.615l45.924,0c-11.816,118.941 -112.184,211.847 -234.231,211.847z"/>
    <path fill="#4c4cff" id="svg_4" d="m306,47.077c-126.919,0 -232.513,91.329 -254.663,211.846l-51.337,0l58.846,70.615l58.846,-70.615l-42.369,0c21.82,-107.429 116.798,-188.308 230.677,-188.308c76.877,0 145.138,36.838 188.096,93.848l28.764,0c-46.254,-70.686 -126.095,-117.386 -216.86,-117.386z"/>
   </g>
  </g>
  <g id="svg_5"/>
  <g id="svg_6"/>
  <g id="svg_7"/>
  <g id="svg_8"/>
  <g id="svg_9"/>
  <g id="svg_10"/>
  <g id="svg_11"/>
  <g id="svg_12"/>
  <g id="svg_13"/>
  <g id="svg_14"/>
  <g id="svg_15"/>
  <g id="svg_16"/>
  <g id="svg_17"/>
  <g id="svg_18"/>
  <g id="svg_19"/>
 </g>
</svg>