<svg xmlns="http://www.w3.org/2000/svg" version="1.0" width="128" height="128" preserveAspectRatio="xMidYMid meet" style=""><rect id="backgroundrect" width="100%" height="100%" x="0" y="0" fill="none" stroke="none"/>


<g class="currentLayer" style=""><title>Layer 1</title><path fill="#ffffff" fill-opacity="1" stroke="none" stroke-opacity="1" stroke-width="1" stroke-dasharray="none" stroke-linejoin="miter" stroke-linecap="butt" stroke-dashoffset="" fill-rule="nonzero" opacity="1" marker-start="" marker-mid="" marker-end="" d="M12.071822166442871,64.8591136932373 C12.071822166442871,39.720992146275975 36.23756802279647,19.359113693237305 66.07182216644287,19.359113693237305 C95.90607631008928,19.359113693237305 120.07182216644287,39.720992146275975 120.07182216644287,64.8591136932373 C120.07182216644287,89.99723524019863 95.90607631008928,110.3591136932373 66.07182216644287,110.3591136932373 C36.23756802279647,110.3591136932373 12.071822166442871,89.99723524019863 12.071822166442871,64.8591136932373 z" id="svg_5" class=""/><g transform="translate(0,128) scale(0.10000000149011612,-0.10000000149011612) " fill="#e84141" stroke="none" id="svg_1" class="" fill-opacity="1">
<path d="M511.0497236251831,1253.950276374817 c-109,-24 -224,-88 -310,-175 c-253,-252 -253,-648 0,-900 c252,-253 648,-253 900,0 c253,252 253,648 0,900 c-156,157 -373,221 -590,175 zm42,-392 l98,-98 l100,100 l100,100 l67,-68 l68,-67 l-100,-100 l-100,-100 l100,-100 l100,-100 l-68,-67 l-67,-68 l-100,100 l-100,100 l-100,-100 l-100,-100 l-67,68 l-68,67 l100,100 l100,100 l-100,100 l-100,100 l65,65 c35,36 67,65 70,65 c2,0 49,-44 102,-97 z" id="svg_2" fill="#e84141" fill-opacity="1"/>
</g><path fill="#e84141" fill-opacity="1" stroke="none" stroke-opacity="1" stroke-width="1" stroke-dasharray="none" stroke-linejoin="miter" stroke-linecap="butt" stroke-dashoffset="" fill-rule="nonzero" opacity="1" marker-start="" marker-mid="" marker-end="" id="svg_3" d="M-162.519325200976,64.27623762577892 " style="color: rgb(0, 0, 0);"/></g></svg>